solid AssimpScene
 facet normal 0.999348 0.036103 0
  outer loop
  vertex 75 -1.83697e-14 75
  vertex 75 -1.83697e-14 0
  vertex 74.8045 5.41183 0
  endloop
 endfacet

 facet normal 0.999348 0.036103 0
  outer loop
  vertex 74.8045 5.41183 75
  vertex 75 -1.83697e-14 75
  vertex 74.8045 5.41183 0
  endloop
 endfacet

 facet normal 0.994138 0.108119 0
  outer loop
  vertex 74.219 10.7954 75
  vertex 74.8045 5.41183 75
  vertex 74.8045 5.41183 0
  endloop
 endfacet

 facet normal 0.994138 0.108119 0
  outer loop
  vertex 74.219 10.7954 75
  vertex 74.8045 5.41183 0
  vertex 74.219 10.7954 0
  endloop
 endfacet

 facet normal 0.983745 0.179571 0
  outer loop
  vertex 73.2465 16.1228 75
  vertex 74.219 10.7954 0
  vertex 73.2465 16.1228 0
  endloop
 endfacet

 facet normal 0.983745 0.179571 0
  outer loop
  vertex 73.2465 16.1228 75
  vertex 74.219 10.7954 75
  vertex 74.219 10.7954 0
  endloop
 endfacet

 facet normal 0.968223 0.250089 0
  outer loop
  vertex 71.8922 21.3661 75
  vertex 73.2465 16.1228 0
  vertex 71.8922 21.3661 0
  endloop
 endfacet

 facet normal 0.968223 0.250089 0
  outer loop
  vertex 71.8922 21.3661 75
  vertex 73.2465 16.1228 75
  vertex 73.2465 16.1228 0
  endloop
 endfacet

 facet normal 0.947653 0.319302 0
  outer loop
  vertex 70.1631 26.4979 75
  vertex 71.8922 21.3661 0
  vertex 70.1631 26.4979 0
  endloop
 endfacet

 facet normal 0.947653 0.319302 0
  outer loop
  vertex 70.1631 26.4979 75
  vertex 71.8922 21.3661 75
  vertex 71.8922 21.3661 0
  endloop
 endfacet

 facet normal 0.922143 0.38685 0
  outer loop
  vertex 68.0682 31.4917 75
  vertex 70.1631 26.4979 75
  vertex 70.1631 26.4979 0
  endloop
 endfacet

 facet normal 0.922143 0.38685 0
  outer loop
  vertex 68.0682 31.4917 75
  vertex 70.1631 26.4979 0
  vertex 68.0682 31.4917 0
  endloop
 endfacet

 facet normal 0.891825 0.452381 0
  outer loop
  vertex 65.6183 36.3212 75
  vertex 68.0682 31.4917 75
  vertex 68.0682 31.4917 0
  endloop
 endfacet

 facet normal 0.891825 0.452381 0
  outer loop
  vertex 65.6183 36.3212 75
  vertex 68.0682 31.4917 0
  vertex 65.6183 36.3212 0
  endloop
 endfacet

 facet normal 0.856857 0.515553 0
  outer loop
  vertex 62.8264 40.9614 75
  vertex 65.6183 36.3212 75
  vertex 65.6183 36.3212 0
  endloop
 endfacet

 facet normal 0.856857 0.515553 0
  outer loop
  vertex 62.8264 40.9614 75
  vertex 65.6183 36.3212 0
  vertex 62.8264 40.9614 0
  endloop
 endfacet

 facet normal 0.817422 0.576039 0
  outer loop
  vertex 59.707 45.3881 75
  vertex 62.8264 40.9614 75
  vertex 62.8264 40.9614 0
  endloop
 endfacet

 facet normal 0.817422 0.576039 0
  outer loop
  vertex 59.707 45.3881 75
  vertex 62.8264 40.9614 0
  vertex 59.707 45.3881 0
  endloop
 endfacet

 facet normal 0.773726 0.633521 0
  outer loop
  vertex 56.2762 49.5781 75
  vertex 59.707 45.3881 75
  vertex 59.707 45.3881 0
  endloop
 endfacet

 facet normal 0.773726 0.633521 0
  outer loop
  vertex 56.2762 49.5781 75
  vertex 59.707 45.3881 0
  vertex 56.2762 49.5781 0
  endloop
 endfacet

 facet normal 0.725995 0.6877 0
  outer loop
  vertex 52.5521 53.5096 75
  vertex 56.2762 49.5781 75
  vertex 56.2762 49.5781 0
  endloop
 endfacet

 facet normal 0.725995 0.6877 0
  outer loop
  vertex 52.5521 53.5096 75
  vertex 56.2762 49.5781 0
  vertex 52.5521 53.5096 0
  endloop
 endfacet

 facet normal 0.67448 0.738293 0
  outer loop
  vertex 48.554 57.1622 75
  vertex 52.5521 53.5096 75
  vertex 52.5521 53.5096 0
  endloop
 endfacet

 facet normal 0.67448 0.738293 0
  outer loop
  vertex 48.554 57.1622 75
  vertex 52.5521 53.5096 0
  vertex 48.554 57.1622 0
  endloop
 endfacet

 facet normal 0.619449 0.785037 0
  outer loop
  vertex 44.3027 60.5167 75
  vertex 48.554 57.1622 0
  vertex 44.3027 60.5167 0
  endloop
 endfacet

 facet normal 0.619449 0.785037 0
  outer loop
  vertex 44.3027 60.5167 75
  vertex 48.554 57.1622 75
  vertex 48.554 57.1622 0
  endloop
 endfacet

 facet normal 0.561186 0.827689 0
  outer loop
  vertex 39.8205 63.5557 75
  vertex 44.3027 60.5167 0
  vertex 39.8205 63.5557 0
  endloop
 endfacet

 facet normal 0.561186 0.827689 0
  outer loop
  vertex 39.8205 63.5557 75
  vertex 44.3027 60.5167 75
  vertex 44.3027 60.5167 0
  endloop
 endfacet

 facet normal 0.500001 0.866025 0
  outer loop
  vertex 35.1306 66.2634 75
  vertex 39.8205 63.5557 0
  vertex 35.1306 66.2634 0
  endloop
 endfacet

 facet normal 0.500001 0.866025 0
  outer loop
  vertex 35.1306 66.2634 75
  vertex 39.8205 63.5557 75
  vertex 39.8205 63.5557 0
  endloop
 endfacet

 facet normal 0.436206 0.899847 0
  outer loop
  vertex 30.2576 68.6256 75
  vertex 35.1306 66.2634 0
  vertex 30.2576 68.6256 0
  endloop
 endfacet

 facet normal 0.436206 0.899847 0
  outer loop
  vertex 30.2576 68.6256 75
  vertex 35.1306 66.2634 75
  vertex 35.1306 66.2634 0
  endloop
 endfacet

 facet normal 0.370138 0.928977 0
  outer loop
  vertex 25.2269 70.6301 75
  vertex 30.2576 68.6256 0
  vertex 25.2269 70.6301 0
  endloop
 endfacet

 facet normal 0.370138 0.928977 0
  outer loop
  vertex 25.2269 70.6301 75
  vertex 30.2576 68.6256 75
  vertex 30.2576 68.6256 0
  endloop
 endfacet

 facet normal 0.30214 0.953263 0
  outer loop
  vertex 20.0646 72.2663 75
  vertex 25.2269 70.6301 0
  vertex 20.0646 72.2663 0
  endloop
 endfacet

 facet normal 0.30214 0.953263 0
  outer loop
  vertex 20.0646 72.2663 75
  vertex 25.2269 70.6301 75
  vertex 25.2269 70.6301 0
  endloop
 endfacet

 facet normal 0.232568 0.97258 0
  outer loop
  vertex 14.7978 73.5257 75
  vertex 20.0646 72.2663 0
  vertex 14.7978 73.5257 0
  endloop
 endfacet

 facet normal 0.232568 0.97258 0
  outer loop
  vertex 14.7978 73.5257 75
  vertex 20.0646 72.2663 75
  vertex 20.0646 72.2663 0
  endloop
 endfacet

 facet normal 0.161782 0.986827 0
  outer loop
  vertex 9.45373 74.4018 75
  vertex 14.7978 73.5257 0
  vertex 9.45373 74.4018 0
  endloop
 endfacet

 facet normal 0.161782 0.986827 0
  outer loop
  vertex 9.45373 74.4018 75
  vertex 14.7978 73.5257 75
  vertex 14.7978 73.5257 0
  endloop
 endfacet

 facet normal 0.0901533 0.995928 0
  outer loop
  vertex 4.06042 74.89 75
  vertex 9.45373 74.4018 0
  vertex 4.06042 74.89 0
  endloop
 endfacet

 facet normal 0.0901533 0.995928 0
  outer loop
  vertex 4.06042 74.89 75
  vertex 9.45373 74.4018 75
  vertex 9.45373 74.4018 0
  endloop
 endfacet

 facet normal 0.0180543 0.999837 0
  outer loop
  vertex -1.35406 74.9878 75
  vertex 4.06042 74.89 0
  vertex -1.35406 74.9878 0
  endloop
 endfacet

 facet normal 0.0180543 0.999837 0
  outer loop
  vertex -1.35406 74.9878 75
  vertex 4.06042 74.89 75
  vertex 4.06042 74.89 0
  endloop
 endfacet

 facet normal -0.054139 0.998533 0
  outer loop
  vertex -6.76148 74.6946 75
  vertex -1.35406 74.9878 0
  vertex -6.76148 74.6946 0
  endloop
 endfacet

 facet normal -0.054139 0.998533 0
  outer loop
  vertex -6.76148 74.6946 75
  vertex -1.35406 74.9878 75
  vertex -1.35406 74.9878 0
  endloop
 endfacet

 facet normal -0.126051 0.992024 0
  outer loop
  vertex -12.1336 74.012 75
  vertex -6.76148 74.6946 0
  vertex -12.1336 74.012 0
  endloop
 endfacet

 facet normal -0.126051 0.992024 0
  outer loop
  vertex -12.1336 74.012 75
  vertex -6.76148 74.6946 75
  vertex -6.76148 74.6946 0
  endloop
 endfacet

 facet normal -0.197303 0.980343 0
  outer loop
  vertex -17.4426 72.9435 75
  vertex -12.1336 74.012 0
  vertex -17.4426 72.9435 0
  endloop
 endfacet

 facet normal -0.197303 0.980343 0
  outer loop
  vertex -17.4426 72.9435 75
  vertex -12.1336 74.012 75
  vertex -12.1336 74.012 0
  endloop
 endfacet

 facet normal -0.267528 0.96355 0
  outer loop
  vertex -22.6605 71.4948 75
  vertex -17.4426 72.9435 0
  vertex -22.6605 71.4948 0
  endloop
 endfacet

 facet normal -0.267528 0.96355 0
  outer loop
  vertex -22.6605 71.4948 75
  vertex -17.4426 72.9435 75
  vertex -17.4426 72.9435 0
  endloop
 endfacet

 facet normal -0.336359 0.941734 0
  outer loop
  vertex -27.7604 69.6733 75
  vertex -22.6605 71.4948 0
  vertex -27.7604 69.6733 0
  endloop
 endfacet

 facet normal -0.336359 0.941734 0
  outer loop
  vertex -27.7604 69.6733 75
  vertex -22.6605 71.4948 75
  vertex -22.6605 71.4948 0
  endloop
 endfacet

 facet normal -0.403435 0.915008 0
  outer loop
  vertex -32.7155 67.4885 75
  vertex -27.7604 69.6733 0
  vertex -32.7155 67.4885 0
  endloop
 endfacet

 facet normal -0.403435 0.915008 0
  outer loop
  vertex -32.7155 67.4885 75
  vertex -27.7604 69.6733 75
  vertex -27.7604 69.6733 0
  endloop
 endfacet

 facet normal -0.468409 0.883512 0
  outer loop
  vertex -37.5 64.9519 75
  vertex -32.7155 67.4885 0
  vertex -37.5 64.9519 0
  endloop
 endfacet

 facet normal -0.468409 0.883512 0
  outer loop
  vertex -37.5 64.9519 75
  vertex -32.7155 67.4885 75
  vertex -32.7155 67.4885 0
  endloop
 endfacet

 facet normal -0.530939 0.84741 0
  outer loop
  vertex -42.089 62.0767 75
  vertex -37.5 64.9519 0
  vertex -42.089 62.0767 0
  endloop
 endfacet

 facet normal -0.530939 0.84741 0
  outer loop
  vertex -42.089 62.0767 75
  vertex -37.5 64.9519 75
  vertex -37.5 64.9519 0
  endloop
 endfacet

 facet normal -0.590703 0.806889 0
  outer loop
  vertex -46.4586 58.8778 75
  vertex -42.089 62.0767 75
  vertex -42.089 62.0767 0
  endloop
 endfacet

 facet normal -0.590703 0.806889 0
  outer loop
  vertex -46.4586 58.8778 75
  vertex -42.089 62.0767 0
  vertex -46.4586 58.8778 0
  endloop
 endfacet

 facet normal -0.647386 0.762162 0
  outer loop
  vertex -50.586 55.372 75
  vertex -46.4586 58.8778 75
  vertex -46.4586 58.8778 0
  endloop
 endfacet

 facet normal -0.647386 0.762162 0
  outer loop
  vertex -50.586 55.372 75
  vertex -46.4586 58.8778 0
  vertex -50.586 55.372 0
  endloop
 endfacet

 facet normal -0.700695 0.713461 0
  outer loop
  vertex -54.4497 51.5775 75
  vertex -50.586 55.372 75
  vertex -50.586 55.372 0
  endloop
 endfacet

 facet normal -0.700695 0.713461 0
  outer loop
  vertex -54.4497 51.5775 75
  vertex -50.586 55.372 0
  vertex -54.4497 51.5775 0
  endloop
 endfacet

 facet normal -0.75035 0.661041 0
  outer loop
  vertex -58.0294 47.514 75
  vertex -54.4497 51.5775 75
  vertex -54.4497 51.5775 0
  endloop
 endfacet

 facet normal -0.75035 0.661041 0
  outer loop
  vertex -58.0294 47.514 75
  vertex -54.4497 51.5775 0
  vertex -58.0294 47.514 0
  endloop
 endfacet

 facet normal -0.796093 0.605174 0
  outer loop
  vertex -61.3067 43.2029 75
  vertex -58.0294 47.514 75
  vertex -58.0294 47.514 0
  endloop
 endfacet

 facet normal -0.796093 0.605174 0
  outer loop
  vertex -61.3067 43.2029 75
  vertex -58.0294 47.514 0
  vertex -61.3067 43.2029 0
  endloop
 endfacet

 facet normal -0.837686 0.546153 0
  outer loop
  vertex -64.2643 38.6665 75
  vertex -61.3067 43.2029 0
  vertex -64.2643 38.6665 0
  endloop
 endfacet

 facet normal -0.837686 0.546153 0
  outer loop
  vertex -64.2643 38.6665 75
  vertex -61.3067 43.2029 75
  vertex -61.3067 43.2029 0
  endloop
 endfacet

 facet normal -0.874911 0.484283 0
  outer loop
  vertex -66.8869 33.9286 75
  vertex -64.2643 38.6665 0
  vertex -66.8869 33.9286 0
  endloop
 endfacet

 facet normal -0.874911 0.484283 0
  outer loop
  vertex -66.8869 33.9286 75
  vertex -64.2643 38.6665 75
  vertex -64.2643 38.6665 0
  endloop
 endfacet

 facet normal -0.907576 0.419889 0
  outer loop
  vertex -69.1607 29.0137 75
  vertex -66.8869 33.9286 0
  vertex -69.1607 29.0137 0
  endloop
 endfacet

 facet normal -0.907576 0.419889 0
  outer loop
  vertex -69.1607 29.0137 75
  vertex -66.8869 33.9286 75
  vertex -66.8869 33.9286 0
  endloop
 endfacet

 facet normal -0.935508 0.353307 0
  outer loop
  vertex -71.074 23.9476 75
  vertex -69.1607 29.0137 0
  vertex -71.074 23.9476 0
  endloop
 endfacet

 facet normal -0.935508 0.353307 0
  outer loop
  vertex -71.074 23.9476 75
  vertex -69.1607 29.0137 75
  vertex -69.1607 29.0137 0
  endloop
 endfacet

 facet normal -0.958563 0.284881 0
  outer loop
  vertex -72.6167 18.7566 75
  vertex -71.074 23.9476 0
  vertex -72.6167 18.7566 0
  endloop
 endfacet

 facet normal -0.958563 0.284881 0
  outer loop
  vertex -72.6167 18.7566 75
  vertex -71.074 23.9476 75
  vertex -71.074 23.9476 0
  endloop
 endfacet

 facet normal -0.976621 0.21497 0
  outer loop
  vertex -73.7809 13.4679 75
  vertex -72.6167 18.7566 0
  vertex -73.7809 13.4679 0
  endloop
 endfacet

 facet normal -0.976621 0.21497 0
  outer loop
  vertex -73.7809 13.4679 75
  vertex -72.6167 18.7566 75
  vertex -72.6167 18.7566 0
  endloop
 endfacet

 facet normal -0.989586 0.14394 0
  outer loop
  vertex -74.5603 8.10893 75
  vertex -73.7809 13.4679 0
  vertex -74.5603 8.10893 0
  endloop
 endfacet

 facet normal -0.989586 0.14394 0
  outer loop
  vertex -74.5603 8.10893 75
  vertex -73.7809 13.4679 75
  vertex -73.7809 13.4679 0
  endloop
 endfacet

 facet normal -0.997393 0.0721581 0
  outer loop
  vertex -74.9511 2.70768 75
  vertex -74.5603 8.10893 0
  vertex -74.9511 2.70768 0
  endloop
 endfacet

 facet normal -0.997393 0.0721581 0
  outer loop
  vertex -74.9511 2.70768 75
  vertex -74.5603 8.10893 75
  vertex -74.5603 8.10893 0
  endloop
 endfacet

 facet normal -1 0 0
  outer loop
  vertex -74.9511 -2.70768 75
  vertex -74.9511 2.70768 0
  vertex -74.9511 -2.70768 0
  endloop
 endfacet

 facet normal -1 0 0
  outer loop
  vertex -74.9511 -2.70768 75
  vertex -74.9511 2.70768 75
  vertex -74.9511 2.70768 0
  endloop
 endfacet

 facet normal -0.997393 -0.0721581 0
  outer loop
  vertex -74.5603 -8.10893 75
  vertex -74.9511 -2.70768 0
  vertex -74.5603 -8.10893 0
  endloop
 endfacet

 facet normal -0.997393 -0.0721581 0
  outer loop
  vertex -74.5603 -8.10893 75
  vertex -74.9511 -2.70768 75
  vertex -74.9511 -2.70768 0
  endloop
 endfacet

 facet normal -0.989586 -0.14394 0
  outer loop
  vertex -73.7809 -13.4679 75
  vertex -74.5603 -8.10893 0
  vertex -73.7809 -13.4679 0
  endloop
 endfacet

 facet normal -0.989586 -0.14394 0
  outer loop
  vertex -73.7809 -13.4679 75
  vertex -74.5603 -8.10893 75
  vertex -74.5603 -8.10893 0
  endloop
 endfacet

 facet normal -0.976621 -0.21497 0
  outer loop
  vertex -72.6167 -18.7566 75
  vertex -73.7809 -13.4679 0
  vertex -72.6167 -18.7566 0
  endloop
 endfacet

 facet normal -0.976621 -0.21497 0
  outer loop
  vertex -72.6167 -18.7566 75
  vertex -73.7809 -13.4679 75
  vertex -73.7809 -13.4679 0
  endloop
 endfacet

 facet normal -0.958563 -0.284881 0
  outer loop
  vertex -71.074 -23.9476 75
  vertex -72.6167 -18.7566 0
  vertex -71.074 -23.9476 0
  endloop
 endfacet

 facet normal -0.958563 -0.284881 0
  outer loop
  vertex -71.074 -23.9476 75
  vertex -72.6167 -18.7566 75
  vertex -72.6167 -18.7566 0
  endloop
 endfacet

 facet normal -0.935508 -0.353307 0
  outer loop
  vertex -69.1607 -29.0137 75
  vertex -71.074 -23.9476 0
  vertex -69.1607 -29.0137 0
  endloop
 endfacet

 facet normal -0.935508 -0.353307 0
  outer loop
  vertex -69.1607 -29.0137 75
  vertex -71.074 -23.9476 75
  vertex -71.074 -23.9476 0
  endloop
 endfacet

 facet normal -0.907576 -0.419889 0
  outer loop
  vertex -66.8869 -33.9286 75
  vertex -69.1607 -29.0137 0
  vertex -66.8869 -33.9286 0
  endloop
 endfacet

 facet normal -0.907576 -0.419889 0
  outer loop
  vertex -66.8869 -33.9286 75
  vertex -69.1607 -29.0137 75
  vertex -69.1607 -29.0137 0
  endloop
 endfacet

 facet normal -0.874911 -0.484283 0
  outer loop
  vertex -64.2643 -38.6665 75
  vertex -66.8869 -33.9286 0
  vertex -64.2643 -38.6665 0
  endloop
 endfacet

 facet normal -0.874911 -0.484283 0
  outer loop
  vertex -64.2643 -38.6665 75
  vertex -66.8869 -33.9286 75
  vertex -66.8869 -33.9286 0
  endloop
 endfacet

 facet normal -0.837686 -0.546153 0
  outer loop
  vertex -61.3067 -43.2029 75
  vertex -64.2643 -38.6665 0
  vertex -61.3067 -43.2029 0
  endloop
 endfacet

 facet normal -0.837686 -0.546153 0
  outer loop
  vertex -61.3067 -43.2029 75
  vertex -64.2643 -38.6665 75
  vertex -64.2643 -38.6665 0
  endloop
 endfacet

 facet normal -0.796093 -0.605174 0
  outer loop
  vertex -58.0294 -47.514 75
  vertex -61.3067 -43.2029 0
  vertex -58.0294 -47.514 0
  endloop
 endfacet

 facet normal -0.796093 -0.605174 0
  outer loop
  vertex -58.0294 -47.514 75
  vertex -61.3067 -43.2029 75
  vertex -61.3067 -43.2029 0
  endloop
 endfacet

 facet normal -0.75035 -0.661041 0
  outer loop
  vertex -54.4497 -51.5775 75
  vertex -58.0294 -47.514 0
  vertex -54.4497 -51.5775 0
  endloop
 endfacet

 facet normal -0.75035 -0.661041 0
  outer loop
  vertex -54.4497 -51.5775 75
  vertex -58.0294 -47.514 75
  vertex -58.0294 -47.514 0
  endloop
 endfacet

 facet normal -0.700695 -0.713461 0
  outer loop
  vertex -50.586 -55.372 75
  vertex -54.4497 -51.5775 0
  vertex -50.586 -55.372 0
  endloop
 endfacet

 facet normal -0.700695 -0.713461 0
  outer loop
  vertex -50.586 -55.372 75
  vertex -54.4497 -51.5775 75
  vertex -54.4497 -51.5775 0
  endloop
 endfacet

 facet normal -0.647386 -0.762162 0
  outer loop
  vertex -46.4586 -58.8778 75
  vertex -50.586 -55.372 0
  vertex -46.4586 -58.8778 0
  endloop
 endfacet

 facet normal -0.647386 -0.762162 0
  outer loop
  vertex -46.4586 -58.8778 75
  vertex -50.586 -55.372 75
  vertex -50.586 -55.372 0
  endloop
 endfacet

 facet normal -0.590703 -0.806889 0
  outer loop
  vertex -42.089 -62.0767 75
  vertex -46.4586 -58.8778 75
  vertex -46.4586 -58.8778 0
  endloop
 endfacet

 facet normal -0.590703 -0.806889 0
  outer loop
  vertex -42.089 -62.0767 75
  vertex -46.4586 -58.8778 0
  vertex -42.089 -62.0767 0
  endloop
 endfacet

 facet normal -0.530939 -0.84741 0
  outer loop
  vertex -37.5 -64.9519 75
  vertex -42.089 -62.0767 75
  vertex -42.089 -62.0767 0
  endloop
 endfacet

 facet normal -0.530939 -0.84741 0
  outer loop
  vertex -37.5 -64.9519 75
  vertex -42.089 -62.0767 0
  vertex -37.5 -64.9519 0
  endloop
 endfacet

 facet normal -0.468409 -0.883512 0
  outer loop
  vertex -32.7155 -67.4885 75
  vertex -37.5 -64.9519 75
  vertex -37.5 -64.9519 0
  endloop
 endfacet

 facet normal -0.468409 -0.883512 0
  outer loop
  vertex -32.7155 -67.4885 75
  vertex -37.5 -64.9519 0
  vertex -32.7155 -67.4885 0
  endloop
 endfacet

 facet normal -0.403435 -0.915008 0
  outer loop
  vertex -27.7604 -69.6733 75
  vertex -32.7155 -67.4885 75
  vertex -32.7155 -67.4885 0
  endloop
 endfacet

 facet normal -0.403435 -0.915008 0
  outer loop
  vertex -27.7604 -69.6733 75
  vertex -32.7155 -67.4885 0
  vertex -27.7604 -69.6733 0
  endloop
 endfacet

 facet normal -0.336359 -0.941734 0
  outer loop
  vertex -22.6605 -71.4948 75
  vertex -27.7604 -69.6733 75
  vertex -27.7604 -69.6733 0
  endloop
 endfacet

 facet normal -0.336359 -0.941734 0
  outer loop
  vertex -22.6605 -71.4948 75
  vertex -27.7604 -69.6733 0
  vertex -22.6605 -71.4948 0
  endloop
 endfacet

 facet normal -0.267528 -0.96355 0
  outer loop
  vertex -17.4426 -72.9435 75
  vertex -22.6605 -71.4948 75
  vertex -22.6605 -71.4948 0
  endloop
 endfacet

 facet normal -0.267528 -0.96355 0
  outer loop
  vertex -17.4426 -72.9435 75
  vertex -22.6605 -71.4948 0
  vertex -17.4426 -72.9435 0
  endloop
 endfacet

 facet normal -0.197303 -0.980343 0
  outer loop
  vertex -12.1336 -74.012 75
  vertex -17.4426 -72.9435 75
  vertex -17.4426 -72.9435 0
  endloop
 endfacet

 facet normal -0.197303 -0.980343 0
  outer loop
  vertex -12.1336 -74.012 75
  vertex -17.4426 -72.9435 0
  vertex -12.1336 -74.012 0
  endloop
 endfacet

 facet normal -0.126051 -0.992024 0
  outer loop
  vertex -6.76148 -74.6946 75
  vertex -12.1336 -74.012 75
  vertex -12.1336 -74.012 0
  endloop
 endfacet

 facet normal -0.126051 -0.992024 0
  outer loop
  vertex -6.76148 -74.6946 75
  vertex -12.1336 -74.012 0
  vertex -6.76148 -74.6946 0
  endloop
 endfacet

 facet normal -0.054139 -0.998533 0
  outer loop
  vertex -1.35406 -74.9878 75
  vertex -6.76148 -74.6946 75
  vertex -6.76148 -74.6946 0
  endloop
 endfacet

 facet normal -0.054139 -0.998533 0
  outer loop
  vertex -1.35406 -74.9878 75
  vertex -6.76148 -74.6946 0
  vertex -1.35406 -74.9878 0
  endloop
 endfacet

 facet normal 0.0180543 -0.999837 0
  outer loop
  vertex 4.06042 -74.89 75
  vertex -1.35406 -74.9878 75
  vertex -1.35406 -74.9878 0
  endloop
 endfacet

 facet normal 0.0180543 -0.999837 0
  outer loop
  vertex 4.06042 -74.89 75
  vertex -1.35406 -74.9878 0
  vertex 4.06042 -74.89 0
  endloop
 endfacet

 facet normal 0.0901533 -0.995928 0
  outer loop
  vertex 9.45373 -74.4018 75
  vertex 4.06042 -74.89 75
  vertex 4.06042 -74.89 0
  endloop
 endfacet

 facet normal 0.0901533 -0.995928 0
  outer loop
  vertex 9.45373 -74.4018 75
  vertex 4.06042 -74.89 0
  vertex 9.45373 -74.4018 0
  endloop
 endfacet

 facet normal 0.161782 -0.986827 0
  outer loop
  vertex 14.7978 -73.5257 75
  vertex 9.45373 -74.4018 75
  vertex 9.45373 -74.4018 0
  endloop
 endfacet

 facet normal 0.161782 -0.986827 0
  outer loop
  vertex 14.7978 -73.5257 75
  vertex 9.45373 -74.4018 0
  vertex 14.7978 -73.5257 0
  endloop
 endfacet

 facet normal 0.232568 -0.97258 0
  outer loop
  vertex 20.0646 -72.2663 75
  vertex 14.7978 -73.5257 75
  vertex 14.7978 -73.5257 0
  endloop
 endfacet

 facet normal 0.232568 -0.97258 0
  outer loop
  vertex 20.0646 -72.2663 75
  vertex 14.7978 -73.5257 0
  vertex 20.0646 -72.2663 0
  endloop
 endfacet

 facet normal 0.30214 -0.953263 0
  outer loop
  vertex 25.2269 -70.6301 75
  vertex 20.0646 -72.2663 75
  vertex 20.0646 -72.2663 0
  endloop
 endfacet

 facet normal 0.30214 -0.953263 0
  outer loop
  vertex 25.2269 -70.6301 75
  vertex 20.0646 -72.2663 0
  vertex 25.2269 -70.6301 0
  endloop
 endfacet

 facet normal 0.370138 -0.928977 0
  outer loop
  vertex 30.2576 -68.6256 75
  vertex 25.2269 -70.6301 75
  vertex 25.2269 -70.6301 0
  endloop
 endfacet

 facet normal 0.370138 -0.928977 0
  outer loop
  vertex 30.2576 -68.6256 75
  vertex 25.2269 -70.6301 0
  vertex 30.2576 -68.6256 0
  endloop
 endfacet

 facet normal 0.436206 -0.899847 0
  outer loop
  vertex 35.1306 -66.2634 75
  vertex 30.2576 -68.6256 0
  vertex 35.1306 -66.2634 0
  endloop
 endfacet

 facet normal 0.436206 -0.899847 0
  outer loop
  vertex 35.1306 -66.2634 75
  vertex 30.2576 -68.6256 75
  vertex 30.2576 -68.6256 0
  endloop
 endfacet

 facet normal 0.500001 -0.866025 0
  outer loop
  vertex 39.8205 -63.5557 75
  vertex 35.1306 -66.2634 0
  vertex 39.8205 -63.5557 0
  endloop
 endfacet

 facet normal 0.500001 -0.866025 0
  outer loop
  vertex 39.8205 -63.5557 75
  vertex 35.1306 -66.2634 75
  vertex 35.1306 -66.2634 0
  endloop
 endfacet

 facet normal 0.561186 -0.827689 0
  outer loop
  vertex 44.3027 -60.5167 75
  vertex 39.8205 -63.5557 0
  vertex 44.3027 -60.5167 0
  endloop
 endfacet

 facet normal 0.561186 -0.827689 0
  outer loop
  vertex 44.3027 -60.5167 75
  vertex 39.8205 -63.5557 75
  vertex 39.8205 -63.5557 0
  endloop
 endfacet

 facet normal 0.619449 -0.785037 0
  outer loop
  vertex 48.554 -57.1622 75
  vertex 44.3027 -60.5167 0
  vertex 48.554 -57.1622 0
  endloop
 endfacet

 facet normal 0.619449 -0.785037 0
  outer loop
  vertex 48.554 -57.1622 75
  vertex 44.3027 -60.5167 75
  vertex 44.3027 -60.5167 0
  endloop
 endfacet

 facet normal 0.67448 -0.738293 0
  outer loop
  vertex 52.5521 -53.5096 75
  vertex 48.554 -57.1622 0
  vertex 52.5521 -53.5096 0
  endloop
 endfacet

 facet normal 0.67448 -0.738293 0
  outer loop
  vertex 52.5521 -53.5096 75
  vertex 48.554 -57.1622 75
  vertex 48.554 -57.1622 0
  endloop
 endfacet

 facet normal 0.725995 -0.6877 0
  outer loop
  vertex 56.2762 -49.5781 75
  vertex 52.5521 -53.5096 0
  vertex 56.2762 -49.5781 0
  endloop
 endfacet

 facet normal 0.725995 -0.6877 0
  outer loop
  vertex 56.2762 -49.5781 75
  vertex 52.5521 -53.5096 75
  vertex 52.5521 -53.5096 0
  endloop
 endfacet

 facet normal 0.773726 -0.633521 0
  outer loop
  vertex 59.707 -45.3881 75
  vertex 56.2762 -49.5781 0
  vertex 59.707 -45.3881 0
  endloop
 endfacet

 facet normal 0.773726 -0.633521 0
  outer loop
  vertex 59.707 -45.3881 75
  vertex 56.2762 -49.5781 75
  vertex 56.2762 -49.5781 0
  endloop
 endfacet

 facet normal 0.817422 -0.576039 0
  outer loop
  vertex 62.8264 -40.9614 75
  vertex 59.707 -45.3881 0
  vertex 62.8264 -40.9614 0
  endloop
 endfacet

 facet normal 0.817422 -0.576039 0
  outer loop
  vertex 62.8264 -40.9614 75
  vertex 59.707 -45.3881 75
  vertex 59.707 -45.3881 0
  endloop
 endfacet

 facet normal 0.856857 -0.515553 0
  outer loop
  vertex 65.6183 -36.3212 75
  vertex 62.8264 -40.9614 0
  vertex 65.6183 -36.3212 0
  endloop
 endfacet

 facet normal 0.856857 -0.515553 0
  outer loop
  vertex 65.6183 -36.3212 75
  vertex 62.8264 -40.9614 75
  vertex 62.8264 -40.9614 0
  endloop
 endfacet

 facet normal 0.891825 -0.452381 0
  outer loop
  vertex 68.0682 -31.4917 75
  vertex 65.6183 -36.3212 0
  vertex 68.0682 -31.4917 0
  endloop
 endfacet

 facet normal 0.891825 -0.452381 0
  outer loop
  vertex 68.0682 -31.4917 75
  vertex 65.6183 -36.3212 75
  vertex 65.6183 -36.3212 0
  endloop
 endfacet

 facet normal 0.922143 -0.38685 0
  outer loop
  vertex 70.1631 -26.4979 75
  vertex 68.0682 -31.4917 75
  vertex 68.0682 -31.4917 0
  endloop
 endfacet

 facet normal 0.922143 -0.38685 0
  outer loop
  vertex 70.1631 -26.4979 75
  vertex 68.0682 -31.4917 0
  vertex 70.1631 -26.4979 0
  endloop
 endfacet

 facet normal 0.947653 -0.319302 0
  outer loop
  vertex 71.8922 -21.3661 75
  vertex 70.1631 -26.4979 75
  vertex 70.1631 -26.4979 0
  endloop
 endfacet

 facet normal 0.947653 -0.319302 0
  outer loop
  vertex 71.8922 -21.3661 75
  vertex 70.1631 -26.4979 0
  vertex 71.8922 -21.3661 0
  endloop
 endfacet

 facet normal 0.968223 -0.250089 0
  outer loop
  vertex 73.2465 -16.1228 75
  vertex 71.8922 -21.3661 75
  vertex 71.8922 -21.3661 0
  endloop
 endfacet

 facet normal 0.968223 -0.250089 0
  outer loop
  vertex 73.2465 -16.1228 75
  vertex 71.8922 -21.3661 0
  vertex 73.2465 -16.1228 0
  endloop
 endfacet

 facet normal 0.983745 -0.179571 0
  outer loop
  vertex 74.219 -10.7954 75
  vertex 73.2465 -16.1228 75
  vertex 73.2465 -16.1228 0
  endloop
 endfacet

 facet normal 0.983745 -0.179571 0
  outer loop
  vertex 74.219 -10.7954 75
  vertex 73.2465 -16.1228 0
  vertex 74.219 -10.7954 0
  endloop
 endfacet

 facet normal 0.994138 -0.108119 0
  outer loop
  vertex 74.8045 -5.41183 75
  vertex 74.219 -10.7954 75
  vertex 74.219 -10.7954 0
  endloop
 endfacet

 facet normal 0.994138 -0.108119 0
  outer loop
  vertex 74.8045 -5.41183 75
  vertex 74.219 -10.7954 0
  vertex 74.8045 -5.41183 0
  endloop
 endfacet

 facet normal 0.999348 -0.036103 0
  outer loop
  vertex 75 -1.83697e-14 75
  vertex 74.8045 -5.41183 75
  vertex 74.8045 -5.41183 0
  endloop
 endfacet

 facet normal 0.999348 -0.036103 0
  outer loop
  vertex 75 -1.83697e-14 75
  vertex 74.8045 -5.41183 0
  vertex 75 -1.83697e-14 0
  endloop
 endfacet

 facet normal 0 0 1
  outer loop
  vertex -17.4426 72.9435 75
  vertex -22.6605 71.4948 75
  vertex -27.7604 69.6733 75
  endloop
 endfacet

 facet normal 0 0 1
  outer loop
  vertex -17.4426 72.9435 75
  vertex -27.7604 69.6733 75
  vertex -37.5 64.9519 75
  endloop
 endfacet

 facet normal 0 0 1
  outer loop
  vertex -58.0294 -47.514 75
  vertex -54.4497 -51.5775 75
  vertex -50.586 -55.372 75
  endloop
 endfacet

 facet normal 0 0 1
  outer loop
  vertex -61.3067 -43.2029 75
  vertex -58.0294 -47.514 75
  vertex -50.586 -55.372 75
  endloop
 endfacet

 facet normal 0 0 1
  outer loop
  vertex 74.219 -10.7954 75
  vertex 70.1631 -26.4979 75
  vertex 71.8922 -21.3661 75
  endloop
 endfacet

 facet normal 0 0 1
  outer loop
  vertex 74.219 -10.7954 75
  vertex 71.8922 -21.3661 75
  vertex 73.2465 -16.1228 75
  endloop
 endfacet

 facet normal 0 0 1
  outer loop
  vertex -66.8869 33.9286 75
  vertex -73.7809 13.4679 75
  vertex -74.9511 -2.70768 75
  endloop
 endfacet

 facet normal 0 0 1
  outer loop
  vertex -66.8869 33.9286 75
  vertex -69.1607 29.0137 75
  vertex -71.074 23.9476 75
  endloop
 endfacet

 facet normal 0 0 1
  outer loop
  vertex -66.8869 33.9286 75
  vertex -71.074 23.9476 75
  vertex -73.7809 13.4679 75
  endloop
 endfacet

 facet normal 0 0 1
  outer loop
  vertex -6.76148 74.6946 75
  vertex -17.4426 72.9435 75
  vertex -37.5 64.9519 75
  endloop
 endfacet

 facet normal 0 0 1
  outer loop
  vertex -6.76148 74.6946 75
  vertex -12.1336 74.012 75
  vertex -17.4426 72.9435 75
  endloop
 endfacet

 facet normal 0 0 1
  outer loop
  vertex -6.76148 74.6946 75
  vertex -66.8869 33.9286 75
  vertex -74.9511 -2.70768 75
  endloop
 endfacet

 facet normal 0 0 1
  outer loop
  vertex -6.76148 74.6946 75
  vertex -37.5 64.9519 75
  vertex -66.8869 33.9286 75
  endloop
 endfacet

 facet normal 0 0 1
  outer loop
  vertex -37.5 -64.9519 75
  vertex -46.4586 -58.8778 75
  vertex -42.089 -62.0767 75
  endloop
 endfacet

 facet normal 0 0 1
  outer loop
  vertex -66.8869 -33.9286 75
  vertex -64.2643 -38.6665 75
  vertex -61.3067 -43.2029 75
  endloop
 endfacet

 facet normal 0 0 1
  outer loop
  vertex -66.8869 -33.9286 75
  vertex -50.586 -55.372 75
  vertex -46.4586 -58.8778 75
  endloop
 endfacet

 facet normal 0 0 1
  outer loop
  vertex -66.8869 -33.9286 75
  vertex -61.3067 -43.2029 75
  vertex -50.586 -55.372 75
  endloop
 endfacet

 facet normal 0 0 1
  outer loop
  vertex 39.8205 -63.5557 75
  vertex 30.2576 -68.6256 75
  vertex 35.1306 -66.2634 75
  endloop
 endfacet

 facet normal 0 0 1
  outer loop
  vertex -27.7604 -69.6733 75
  vertex -46.4586 -58.8778 75
  vertex -37.5 -64.9519 75
  endloop
 endfacet

 facet normal 0 0 1
  outer loop
  vertex 4.06042 74.89 75
  vertex -1.35406 74.9878 75
  vertex -6.76148 74.6946 75
  endloop
 endfacet

 facet normal 0 0 1
  outer loop
  vertex 44.3027 -60.5167 75
  vertex 9.45373 -74.4018 75
  vertex 20.0646 -72.2663 75
  endloop
 endfacet

 facet normal 0 0 1
  outer loop
  vertex -27.7604 -69.6733 75
  vertex -37.5 -64.9519 75
  vertex -32.7155 -67.4885 75
  endloop
 endfacet

 facet normal 0 0 1
  outer loop
  vertex 44.3027 -60.5167 75
  vertex -27.7604 -69.6733 75
  vertex 9.45373 -74.4018 75
  endloop
 endfacet

 facet normal 0 0 1
  outer loop
  vertex 44.3027 -60.5167 75
  vertex 30.2576 -68.6256 75
  vertex 39.8205 -63.5557 75
  endloop
 endfacet

 facet normal 0 0 1
  outer loop
  vertex 74.8045 5.41183 75
  vertex 74.8045 -5.41183 75
  vertex 75 -1.83697e-14 75
  endloop
 endfacet

 facet normal 0 0 1
  outer loop
  vertex 44.3027 -60.5167 75
  vertex 20.0646 -72.2663 75
  vertex 25.2269 -70.6301 75
  endloop
 endfacet

 facet normal 0 0 1
  outer loop
  vertex -71.074 -23.9476 75
  vertex -69.1607 -29.0137 75
  vertex -66.8869 -33.9286 75
  endloop
 endfacet

 facet normal 0 0 1
  outer loop
  vertex 44.3027 -60.5167 75
  vertex 25.2269 -70.6301 75
  vertex 30.2576 -68.6256 75
  endloop
 endfacet

 facet normal 0 0 1
  outer loop
  vertex -58.0294 47.514 75
  vertex -61.3067 43.2029 75
  vertex -64.2643 38.6665 75
  endloop
 endfacet

 facet normal 0 0 1
  outer loop
  vertex -72.6167 -18.7566 75
  vertex -71.074 -23.9476 75
  vertex -66.8869 -33.9286 75
  endloop
 endfacet

 facet normal 0 0 1
  outer loop
  vertex -54.4497 51.5775 75
  vertex -64.2643 38.6665 75
  vertex -66.8869 33.9286 75
  endloop
 endfacet

 facet normal 0 0 1
  outer loop
  vertex -54.4497 51.5775 75
  vertex -58.0294 47.514 75
  vertex -64.2643 38.6665 75
  endloop
 endfacet

 facet normal 0 0 1
  outer loop
  vertex -73.7809 -13.4679 75
  vertex -72.6167 -18.7566 75
  vertex -66.8869 -33.9286 75
  endloop
 endfacet

 facet normal 0 0 1
  outer loop
  vertex -12.1336 -74.012 75
  vertex -22.6605 -71.4948 75
  vertex -17.4426 -72.9435 75
  endloop
 endfacet

 facet normal 0 0 1
  outer loop
  vertex -46.4586 58.8778 75
  vertex -50.586 55.372 75
  vertex -54.4497 51.5775 75
  endloop
 endfacet

 facet normal 0 0 1
  outer loop
  vertex 25.2269 70.6301 75
  vertex 20.0646 72.2663 75
  vertex 14.7978 73.5257 75
  endloop
 endfacet

 facet normal 0 0 1
  outer loop
  vertex 25.2269 70.6301 75
  vertex 14.7978 73.5257 75
  vertex 9.45373 74.4018 75
  endloop
 endfacet

 facet normal 0 0 1
  outer loop
  vertex 25.2269 70.6301 75
  vertex 9.45373 74.4018 75
  vertex 4.06042 74.89 75
  endloop
 endfacet

 facet normal 0 0 1
  outer loop
  vertex 25.2269 70.6301 75
  vertex 4.06042 74.89 75
  vertex -6.76148 74.6946 75
  endloop
 endfacet

 facet normal 0 0 1
  outer loop
  vertex -74.9511 -2.70768 75
  vertex -74.5603 -8.10893 75
  vertex -73.7809 -13.4679 75
  endloop
 endfacet

 facet normal 0 0 1
  outer loop
  vertex -1.35406 -74.9878 75
  vertex -22.6605 -71.4948 75
  vertex -12.1336 -74.012 75
  endloop
 endfacet

 facet normal 0 0 1
  outer loop
  vertex 68.0682 31.4917 75
  vertex 74.8045 5.41183 75
  vertex 74.219 10.7954 75
  endloop
 endfacet

 facet normal 0 0 1
  outer loop
  vertex -1.35406 -74.9878 75
  vertex -12.1336 -74.012 75
  vertex -6.76148 -74.6946 75
  endloop
 endfacet

 facet normal 0 0 1
  outer loop
  vertex 68.0682 31.4917 75
  vertex 74.219 10.7954 75
  vertex 73.2465 16.1228 75
  endloop
 endfacet

 facet normal 0 0 1
  outer loop
  vertex 68.0682 31.4917 75
  vertex 73.2465 16.1228 75
  vertex 71.8922 21.3661 75
  endloop
 endfacet

 facet normal 0 0 1
  outer loop
  vertex 68.0682 31.4917 75
  vertex 70.1631 -26.4979 75
  vertex 74.219 -10.7954 75
  endloop
 endfacet

 facet normal 0 0 1
  outer loop
  vertex 68.0682 31.4917 75
  vertex 71.8922 21.3661 75
  vertex 70.1631 26.4979 75
  endloop
 endfacet

 facet normal 0 0 1
  outer loop
  vertex 68.0682 31.4917 75
  vertex -6.76148 74.6946 75
  vertex -74.9511 -2.70768 75
  endloop
 endfacet

 facet normal 0 0 1
  outer loop
  vertex 62.8264 -40.9614 75
  vertex 56.2762 -49.5781 75
  vertex 59.707 -45.3881 75
  endloop
 endfacet

 facet normal 0 0 1
  outer loop
  vertex 68.0682 31.4917 75
  vertex -73.7809 -13.4679 75
  vertex -66.8869 -33.9286 75
  endloop
 endfacet

 facet normal 0 0 1
  outer loop
  vertex 68.0682 31.4917 75
  vertex 74.8045 -5.41183 75
  vertex 74.8045 5.41183 75
  endloop
 endfacet

 facet normal 0 0 1
  outer loop
  vertex 68.0682 31.4917 75
  vertex -74.9511 -2.70768 75
  vertex -73.7809 -13.4679 75
  endloop
 endfacet

 facet normal 0 0 1
  outer loop
  vertex 68.0682 31.4917 75
  vertex 25.2269 70.6301 75
  vertex -6.76148 74.6946 75
  endloop
 endfacet

 facet normal 0 0 1
  outer loop
  vertex -37.5 64.9519 75
  vertex -42.089 62.0767 75
  vertex -46.4586 58.8778 75
  endloop
 endfacet

 facet normal 0 0 1
  outer loop
  vertex 68.0682 31.4917 75
  vertex 74.219 -10.7954 75
  vertex 74.8045 -5.41183 75
  endloop
 endfacet

 facet normal 0 0 1
  outer loop
  vertex -37.5 64.9519 75
  vertex -54.4497 51.5775 75
  vertex -66.8869 33.9286 75
  endloop
 endfacet

 facet normal 0 0 1
  outer loop
  vertex 68.0682 31.4917 75
  vertex -66.8869 -33.9286 75
  vertex -46.4586 -58.8778 75
  endloop
 endfacet

 facet normal 0 0 1
  outer loop
  vertex -37.5 64.9519 75
  vertex -46.4586 58.8778 75
  vertex -54.4497 51.5775 75
  endloop
 endfacet

 facet normal 0 0 1
  outer loop
  vertex 68.0682 31.4917 75
  vertex -46.4586 -58.8778 75
  vertex 70.1631 -26.4979 75
  endloop
 endfacet

 facet normal 0 0 1
  outer loop
  vertex 35.1306 66.2634 75
  vertex 30.2576 68.6256 75
  vertex 25.2269 70.6301 75
  endloop
 endfacet

 facet normal 0 0 1
  outer loop
  vertex -74.5603 8.10893 75
  vertex -74.9511 2.70768 75
  vertex -74.9511 -2.70768 75
  endloop
 endfacet

 facet normal 0 0 1
  outer loop
  vertex 65.6183 -36.3212 75
  vertex 56.2762 -49.5781 75
  vertex 62.8264 -40.9614 75
  endloop
 endfacet

 facet normal 0 0 1
  outer loop
  vertex 65.6183 -36.3212 75
  vertex 52.5521 -53.5096 75
  vertex 56.2762 -49.5781 75
  endloop
 endfacet

 facet normal 0 0 1
  outer loop
  vertex 9.45373 -74.4018 75
  vertex -22.6605 -71.4948 75
  vertex -1.35406 -74.9878 75
  endloop
 endfacet

 facet normal 0 0 1
  outer loop
  vertex 39.8205 63.5557 75
  vertex 35.1306 66.2634 75
  vertex 25.2269 70.6301 75
  endloop
 endfacet

 facet normal 0 0 1
  outer loop
  vertex 9.45373 -74.4018 75
  vertex -27.7604 -69.6733 75
  vertex -22.6605 -71.4948 75
  endloop
 endfacet

 facet normal 0 0 1
  outer loop
  vertex 62.8264 40.9614 75
  vertex 68.0682 31.4917 75
  vertex 65.6183 36.3212 75
  endloop
 endfacet

 facet normal 0 0 1
  outer loop
  vertex 9.45373 -74.4018 75
  vertex -1.35406 -74.9878 75
  vertex 4.06042 -74.89 75
  endloop
 endfacet

 facet normal 0 0 1
  outer loop
  vertex 44.3027 60.5167 75
  vertex 39.8205 63.5557 75
  vertex 25.2269 70.6301 75
  endloop
 endfacet

 facet normal 0 0 1
  outer loop
  vertex -73.7809 13.4679 75
  vertex -74.5603 8.10893 75
  vertex -74.9511 -2.70768 75
  endloop
 endfacet

 facet normal 0 0 1
  outer loop
  vertex -27.7604 69.6733 75
  vertex -32.7155 67.4885 75
  vertex -37.5 64.9519 75
  endloop
 endfacet

 facet normal 0 0 1
  outer loop
  vertex 59.707 45.3881 75
  vertex 68.0682 31.4917 75
  vertex 62.8264 40.9614 75
  endloop
 endfacet

 facet normal 0 0 1
  outer loop
  vertex 70.1631 -26.4979 75
  vertex -46.4586 -58.8778 75
  vertex -27.7604 -69.6733 75
  endloop
 endfacet

 facet normal 0 0 1
  outer loop
  vertex 48.554 57.1622 75
  vertex 25.2269 70.6301 75
  vertex 68.0682 31.4917 75
  endloop
 endfacet

 facet normal 0 0 1
  outer loop
  vertex 48.554 57.1622 75
  vertex 44.3027 60.5167 75
  vertex 25.2269 70.6301 75
  endloop
 endfacet

 facet normal 0 0 1
  outer loop
  vertex 70.1631 -26.4979 75
  vertex 52.5521 -53.5096 75
  vertex 65.6183 -36.3212 75
  endloop
 endfacet

 facet normal 0 0 1
  outer loop
  vertex 70.1631 -26.4979 75
  vertex -27.7604 -69.6733 75
  vertex 44.3027 -60.5167 75
  endloop
 endfacet

 facet normal 0 0 1
  outer loop
  vertex 70.1631 -26.4979 75
  vertex 44.3027 -60.5167 75
  vertex 48.554 -57.1622 75
  endloop
 endfacet

 facet normal 0 0 1
  outer loop
  vertex 70.1631 -26.4979 75
  vertex 48.554 -57.1622 75
  vertex 52.5521 -53.5096 75
  endloop
 endfacet

 facet normal 0 0 1
  outer loop
  vertex 70.1631 -26.4979 75
  vertex 65.6183 -36.3212 75
  vertex 68.0682 -31.4917 75
  endloop
 endfacet

 facet normal 0 0 1
  outer loop
  vertex 52.5521 53.5096 75
  vertex 59.707 45.3881 75
  vertex 56.2762 49.5781 75
  endloop
 endfacet

 facet normal 0 0 1
  outer loop
  vertex 52.5521 53.5096 75
  vertex 68.0682 31.4917 75
  vertex 59.707 45.3881 75
  endloop
 endfacet

 facet normal 0 0 1
  outer loop
  vertex 52.5521 53.5096 75
  vertex 48.554 57.1622 75
  vertex 68.0682 31.4917 75
  endloop
 endfacet

 facet normal 0 0 1
  outer loop
  vertex 20.0646 -72.2663 75
  vertex 9.45373 -74.4018 75
  vertex 14.7978 -73.5257 75
  endloop
 endfacet

 facet normal 0 0 1
  outer loop
  vertex -71.074 23.9476 75
  vertex -72.6167 18.7566 75
  vertex -73.7809 13.4679 75
  endloop
 endfacet

 facet normal 0 0 -1
  outer loop
  vertex -22.6605 71.4948 0
  vertex -17.4426 72.9435 0
  vertex -27.7604 69.6733 0
  endloop
 endfacet

 facet normal 0 0 -1
  outer loop
  vertex -27.7604 69.6733 0
  vertex -17.4426 72.9435 0
  vertex -37.5 64.9519 0
  endloop
 endfacet

 facet normal 0 0 -1
  outer loop
  vertex -54.4497 -51.5775 0
  vertex -58.0294 -47.514 0
  vertex -50.586 -55.372 0
  endloop
 endfacet

 facet normal 0 0 -1
  outer loop
  vertex -58.0294 -47.514 0
  vertex -61.3067 -43.2029 0
  vertex -50.586 -55.372 0
  endloop
 endfacet

 facet normal 0 0 -1
  outer loop
  vertex 70.1631 -26.4979 0
  vertex 74.219 -10.7954 0
  vertex 71.8922 -21.3661 0
  endloop
 endfacet

 facet normal 0 0 -1
  outer loop
  vertex 71.8922 -21.3661 0
  vertex 74.219 -10.7954 0
  vertex 73.2465 -16.1228 0
  endloop
 endfacet

 facet normal 0 0 -1
  outer loop
  vertex -73.7809 13.4679 0
  vertex -66.8869 33.9286 0
  vertex -74.9511 -2.70768 0
  endloop
 endfacet

 facet normal 0 0 -1
  outer loop
  vertex -69.1607 29.0137 0
  vertex -66.8869 33.9286 0
  vertex -71.074 23.9476 0
  endloop
 endfacet

 facet normal 0 0 -1
  outer loop
  vertex -71.074 23.9476 0
  vertex -66.8869 33.9286 0
  vertex -73.7809 13.4679 0
  endloop
 endfacet

 facet normal 0 0 -1
  outer loop
  vertex -17.4426 72.9435 0
  vertex -6.76148 74.6946 0
  vertex -37.5 64.9519 0
  endloop
 endfacet

 facet normal 0 0 -1
  outer loop
  vertex -12.1336 74.012 0
  vertex -6.76148 74.6946 0
  vertex -17.4426 72.9435 0
  endloop
 endfacet

 facet normal 0 0 -1
  outer loop
  vertex -66.8869 33.9286 0
  vertex -6.76148 74.6946 0
  vertex -74.9511 -2.70768 0
  endloop
 endfacet

 facet normal 0 0 -1
  outer loop
  vertex -37.5 64.9519 0
  vertex -6.76148 74.6946 0
  vertex -66.8869 33.9286 0
  endloop
 endfacet

 facet normal 0 0 -1
  outer loop
  vertex -46.4586 -58.8778 0
  vertex -37.5 -64.9519 0
  vertex -42.089 -62.0767 0
  endloop
 endfacet

 facet normal 0 0 -1
  outer loop
  vertex -64.2643 -38.6665 0
  vertex -66.8869 -33.9286 0
  vertex -61.3067 -43.2029 0
  endloop
 endfacet

 facet normal 0 0 -1
  outer loop
  vertex -50.586 -55.372 0
  vertex -66.8869 -33.9286 0
  vertex -46.4586 -58.8778 0
  endloop
 endfacet

 facet normal 0 0 -1
  outer loop
  vertex -61.3067 -43.2029 0
  vertex -66.8869 -33.9286 0
  vertex -50.586 -55.372 0
  endloop
 endfacet

 facet normal 0 0 -1
  outer loop
  vertex 30.2576 -68.6256 0
  vertex 39.8205 -63.5557 0
  vertex 35.1306 -66.2634 0
  endloop
 endfacet

 facet normal 0 0 -1
  outer loop
  vertex -46.4586 -58.8778 0
  vertex -27.7604 -69.6733 0
  vertex -37.5 -64.9519 0
  endloop
 endfacet

 facet normal 0 0 -1
  outer loop
  vertex -1.35406 74.9878 0
  vertex 4.06042 74.89 0
  vertex -6.76148 74.6946 0
  endloop
 endfacet

 facet normal 0 0 -1
  outer loop
  vertex 9.45373 -74.4018 0
  vertex 44.3027 -60.5167 0
  vertex 20.0646 -72.2663 0
  endloop
 endfacet

 facet normal 0 0 -1
  outer loop
  vertex -37.5 -64.9519 0
  vertex -27.7604 -69.6733 0
  vertex -32.7155 -67.4885 0
  endloop
 endfacet

 facet normal 0 0 -1
  outer loop
  vertex -27.7604 -69.6733 0
  vertex 44.3027 -60.5167 0
  vertex 9.45373 -74.4018 0
  endloop
 endfacet

 facet normal 0 0 -1
  outer loop
  vertex 30.2576 -68.6256 0
  vertex 44.3027 -60.5167 0
  vertex 39.8205 -63.5557 0
  endloop
 endfacet

 facet normal 0 0 -1
  outer loop
  vertex 74.8045 -5.41183 0
  vertex 74.8045 5.41183 0
  vertex 75 -1.83697e-14 0
  endloop
 endfacet

 facet normal 0 0 -1
  outer loop
  vertex 20.0646 -72.2663 0
  vertex 44.3027 -60.5167 0
  vertex 25.2269 -70.6301 0
  endloop
 endfacet

 facet normal 0 0 -1
  outer loop
  vertex -69.1607 -29.0137 0
  vertex -71.074 -23.9476 0
  vertex -66.8869 -33.9286 0
  endloop
 endfacet

 facet normal 0 0 -1
  outer loop
  vertex 25.2269 -70.6301 0
  vertex 44.3027 -60.5167 0
  vertex 30.2576 -68.6256 0
  endloop
 endfacet

 facet normal 0 0 -1
  outer loop
  vertex -61.3067 43.2029 0
  vertex -58.0294 47.514 0
  vertex -64.2643 38.6665 0
  endloop
 endfacet

 facet normal 0 0 -1
  outer loop
  vertex -71.074 -23.9476 0
  vertex -72.6167 -18.7566 0
  vertex -66.8869 -33.9286 0
  endloop
 endfacet

 facet normal 0 0 -1
  outer loop
  vertex -64.2643 38.6665 0
  vertex -54.4497 51.5775 0
  vertex -66.8869 33.9286 0
  endloop
 endfacet

 facet normal 0 0 -1
  outer loop
  vertex -58.0294 47.514 0
  vertex -54.4497 51.5775 0
  vertex -64.2643 38.6665 0
  endloop
 endfacet

 facet normal 0 0 -1
  outer loop
  vertex -72.6167 -18.7566 0
  vertex -73.7809 -13.4679 0
  vertex -66.8869 -33.9286 0
  endloop
 endfacet

 facet normal 0 0 -1
  outer loop
  vertex -22.6605 -71.4948 0
  vertex -12.1336 -74.012 0
  vertex -17.4426 -72.9435 0
  endloop
 endfacet

 facet normal 0 0 -1
  outer loop
  vertex -50.586 55.372 0
  vertex -46.4586 58.8778 0
  vertex -54.4497 51.5775 0
  endloop
 endfacet

 facet normal 0 0 -1
  outer loop
  vertex 20.0646 72.2663 0
  vertex 25.2269 70.6301 0
  vertex 14.7978 73.5257 0
  endloop
 endfacet

 facet normal 0 0 -1
  outer loop
  vertex 14.7978 73.5257 0
  vertex 25.2269 70.6301 0
  vertex 9.45373 74.4018 0
  endloop
 endfacet

 facet normal 0 0 -1
  outer loop
  vertex 9.45373 74.4018 0
  vertex 25.2269 70.6301 0
  vertex 4.06042 74.89 0
  endloop
 endfacet

 facet normal 0 0 -1
  outer loop
  vertex 4.06042 74.89 0
  vertex 25.2269 70.6301 0
  vertex -6.76148 74.6946 0
  endloop
 endfacet

 facet normal 0 0 -1
  outer loop
  vertex -74.5603 -8.10893 0
  vertex -74.9511 -2.70768 0
  vertex -73.7809 -13.4679 0
  endloop
 endfacet

 facet normal 0 0 -1
  outer loop
  vertex -22.6605 -71.4948 0
  vertex -1.35406 -74.9878 0
  vertex -12.1336 -74.012 0
  endloop
 endfacet

 facet normal 0 0 -1
  outer loop
  vertex 74.8045 5.41183 0
  vertex 68.0682 31.4917 0
  vertex 74.219 10.7954 0
  endloop
 endfacet

 facet normal 0 0 -1
  outer loop
  vertex -12.1336 -74.012 0
  vertex -1.35406 -74.9878 0
  vertex -6.76148 -74.6946 0
  endloop
 endfacet

 facet normal 0 0 -1
  outer loop
  vertex 74.219 10.7954 0
  vertex 68.0682 31.4917 0
  vertex 73.2465 16.1228 0
  endloop
 endfacet

 facet normal 0 0 -1
  outer loop
  vertex 73.2465 16.1228 0
  vertex 68.0682 31.4917 0
  vertex 71.8922 21.3661 0
  endloop
 endfacet

 facet normal 0 0 -1
  outer loop
  vertex 70.1631 -26.4979 0
  vertex 68.0682 31.4917 0
  vertex 74.219 -10.7954 0
  endloop
 endfacet

 facet normal 0 0 -1
  outer loop
  vertex 71.8922 21.3661 0
  vertex 68.0682 31.4917 0
  vertex 70.1631 26.4979 0
  endloop
 endfacet

 facet normal 0 0 -1
  outer loop
  vertex -6.76148 74.6946 0
  vertex 68.0682 31.4917 0
  vertex -74.9511 -2.70768 0
  endloop
 endfacet

 facet normal 0 0 -1
  outer loop
  vertex 56.2762 -49.5781 0
  vertex 62.8264 -40.9614 0
  vertex 59.707 -45.3881 0
  endloop
 endfacet

 facet normal 0 0 -1
  outer loop
  vertex -73.7809 -13.4679 0
  vertex 68.0682 31.4917 0
  vertex -66.8869 -33.9286 0
  endloop
 endfacet

 facet normal 0 0 -1
  outer loop
  vertex 74.8045 -5.41183 0
  vertex 68.0682 31.4917 0
  vertex 74.8045 5.41183 0
  endloop
 endfacet

 facet normal 0 0 -1
  outer loop
  vertex -74.9511 -2.70768 0
  vertex 68.0682 31.4917 0
  vertex -73.7809 -13.4679 0
  endloop
 endfacet

 facet normal 0 0 -1
  outer loop
  vertex 25.2269 70.6301 0
  vertex 68.0682 31.4917 0
  vertex -6.76148 74.6946 0
  endloop
 endfacet

 facet normal 0 0 -1
  outer loop
  vertex -42.089 62.0767 0
  vertex -37.5 64.9519 0
  vertex -46.4586 58.8778 0
  endloop
 endfacet

 facet normal 0 0 -1
  outer loop
  vertex 74.219 -10.7954 0
  vertex 68.0682 31.4917 0
  vertex 74.8045 -5.41183 0
  endloop
 endfacet

 facet normal 0 0 -1
  outer loop
  vertex -54.4497 51.5775 0
  vertex -37.5 64.9519 0
  vertex -66.8869 33.9286 0
  endloop
 endfacet

 facet normal 0 0 -1
  outer loop
  vertex -66.8869 -33.9286 0
  vertex 68.0682 31.4917 0
  vertex -46.4586 -58.8778 0
  endloop
 endfacet

 facet normal 0 0 -1
  outer loop
  vertex -46.4586 58.8778 0
  vertex -37.5 64.9519 0
  vertex -54.4497 51.5775 0
  endloop
 endfacet

 facet normal 0 0 -1
  outer loop
  vertex -46.4586 -58.8778 0
  vertex 68.0682 31.4917 0
  vertex 70.1631 -26.4979 0
  endloop
 endfacet

 facet normal 0 0 -1
  outer loop
  vertex 30.2576 68.6256 0
  vertex 35.1306 66.2634 0
  vertex 25.2269 70.6301 0
  endloop
 endfacet

 facet normal 0 0 -1
  outer loop
  vertex -74.9511 2.70768 0
  vertex -74.5603 8.10893 0
  vertex -74.9511 -2.70768 0
  endloop
 endfacet

 facet normal 0 0 -1
  outer loop
  vertex 56.2762 -49.5781 0
  vertex 65.6183 -36.3212 0
  vertex 62.8264 -40.9614 0
  endloop
 endfacet

 facet normal 0 0 -1
  outer loop
  vertex 52.5521 -53.5096 0
  vertex 65.6183 -36.3212 0
  vertex 56.2762 -49.5781 0
  endloop
 endfacet

 facet normal 0 0 -1
  outer loop
  vertex -22.6605 -71.4948 0
  vertex 9.45373 -74.4018 0
  vertex -1.35406 -74.9878 0
  endloop
 endfacet

 facet normal 0 0 -1
  outer loop
  vertex 35.1306 66.2634 0
  vertex 39.8205 63.5557 0
  vertex 25.2269 70.6301 0
  endloop
 endfacet

 facet normal 0 0 -1
  outer loop
  vertex -27.7604 -69.6733 0
  vertex 9.45373 -74.4018 0
  vertex -22.6605 -71.4948 0
  endloop
 endfacet

 facet normal 0 0 -1
  outer loop
  vertex 68.0682 31.4917 0
  vertex 62.8264 40.9614 0
  vertex 65.6183 36.3212 0
  endloop
 endfacet

 facet normal 0 0 -1
  outer loop
  vertex -1.35406 -74.9878 0
  vertex 9.45373 -74.4018 0
  vertex 4.06042 -74.89 0
  endloop
 endfacet

 facet normal 0 0 -1
  outer loop
  vertex 39.8205 63.5557 0
  vertex 44.3027 60.5167 0
  vertex 25.2269 70.6301 0
  endloop
 endfacet

 facet normal 0 0 -1
  outer loop
  vertex -74.5603 8.10893 0
  vertex -73.7809 13.4679 0
  vertex -74.9511 -2.70768 0
  endloop
 endfacet

 facet normal 0 0 -1
  outer loop
  vertex -32.7155 67.4885 0
  vertex -27.7604 69.6733 0
  vertex -37.5 64.9519 0
  endloop
 endfacet

 facet normal 0 0 -1
  outer loop
  vertex 68.0682 31.4917 0
  vertex 59.707 45.3881 0
  vertex 62.8264 40.9614 0
  endloop
 endfacet

 facet normal 0 0 -1
  outer loop
  vertex -46.4586 -58.8778 0
  vertex 70.1631 -26.4979 0
  vertex -27.7604 -69.6733 0
  endloop
 endfacet

 facet normal 0 0 -1
  outer loop
  vertex 25.2269 70.6301 0
  vertex 48.554 57.1622 0
  vertex 68.0682 31.4917 0
  endloop
 endfacet

 facet normal 0 0 -1
  outer loop
  vertex 44.3027 60.5167 0
  vertex 48.554 57.1622 0
  vertex 25.2269 70.6301 0
  endloop
 endfacet

 facet normal 0 0 -1
  outer loop
  vertex 52.5521 -53.5096 0
  vertex 70.1631 -26.4979 0
  vertex 65.6183 -36.3212 0
  endloop
 endfacet

 facet normal 0 0 -1
  outer loop
  vertex -27.7604 -69.6733 0
  vertex 70.1631 -26.4979 0
  vertex 44.3027 -60.5167 0
  endloop
 endfacet

 facet normal 0 0 -1
  outer loop
  vertex 44.3027 -60.5167 0
  vertex 70.1631 -26.4979 0
  vertex 48.554 -57.1622 0
  endloop
 endfacet

 facet normal 0 0 -1
  outer loop
  vertex 48.554 -57.1622 0
  vertex 70.1631 -26.4979 0
  vertex 52.5521 -53.5096 0
  endloop
 endfacet

 facet normal 0 0 -1
  outer loop
  vertex 65.6183 -36.3212 0
  vertex 70.1631 -26.4979 0
  vertex 68.0682 -31.4917 0
  endloop
 endfacet

 facet normal 0 0 -1
  outer loop
  vertex 59.707 45.3881 0
  vertex 52.5521 53.5096 0
  vertex 56.2762 49.5781 0
  endloop
 endfacet

 facet normal 0 0 -1
  outer loop
  vertex 68.0682 31.4917 0
  vertex 52.5521 53.5096 0
  vertex 59.707 45.3881 0
  endloop
 endfacet

 facet normal 0 0 -1
  outer loop
  vertex 48.554 57.1622 0
  vertex 52.5521 53.5096 0
  vertex 68.0682 31.4917 0
  endloop
 endfacet

 facet normal 0 0 -1
  outer loop
  vertex 9.45373 -74.4018 0
  vertex 20.0646 -72.2663 0
  vertex 14.7978 -73.5257 0
  endloop
 endfacet

 facet normal 0 0 -1
  outer loop
  vertex -72.6167 18.7566 0
  vertex -71.074 23.9476 0
  vertex -73.7809 13.4679 0
  endloop
 endfacet

endsolid AssimpScene
